<svg width="180" height="30" viewBox="0 0 180 30" fill="none" xmlns="http://www.w3.org/2000/svg">
<g clip-path="url(#clip0_12_2528)">
<path d="M14.7573 4.95854L29.1886 0.78125L24.9778 15.0001L29.1886 29.1788L14.7573 25.0416L0.285156 29.1788L4.53687 15.0001L0.285156 0.78125L14.7573 4.95854Z" fill="white"/>
</g>
<path d="M40.1099 25.4721V2.9165H49.2272C50.6266 2.9165 51.8728 3.19576 52.966 3.75428C54.0811 4.29132 54.9447 5.06465 55.5569 6.07428C56.191 7.06243 56.508 8.25465 56.508 9.65095V10.0698C56.508 11.4661 56.1801 12.6691 55.5241 13.6787C54.8901 14.6884 54.0264 15.4617 52.9332 15.9987C51.84 16.5358 50.6047 16.8043 49.2272 16.8043H43.6519V25.4721H40.1099ZM43.6519 13.6465H48.8665C50.1127 13.6465 51.1076 13.3243 51.8509 12.6798C52.5943 12.0354 52.966 11.1547 52.966 10.0376V9.71539C52.966 8.57687 52.5943 7.68539 51.8509 7.04095C51.1076 6.3965 50.1127 6.07428 48.8665 6.07428H43.6519V13.6465Z" fill="white"/>
<path d="M67.0969 25.9232C65.4789 25.9232 64.0359 25.601 62.7678 24.9565C61.5215 24.2906 60.5376 23.3454 59.8161 22.121C59.0946 20.8965 58.7338 19.4465 58.7338 17.771V17.2876C58.7338 15.6121 59.0946 14.1728 59.8161 12.9698C60.5376 11.7454 61.5215 10.8002 62.7678 10.1343C64.0359 9.46836 65.4789 9.13539 67.0969 9.13539C68.7148 9.13539 70.1579 9.46836 71.426 10.1343C72.6941 10.8002 73.6889 11.7454 74.4105 12.9698C75.132 14.1728 75.4927 15.6121 75.4927 17.2876V17.771C75.4927 19.4465 75.132 20.8965 74.4105 22.121C73.6889 23.3454 72.6941 24.2906 71.426 24.9565C70.1579 25.601 68.7148 25.9232 67.0969 25.9232ZM67.0969 22.9587C68.5836 22.9587 69.7862 22.4969 70.7045 21.5732C71.6446 20.628 72.1147 19.3284 72.1147 17.6743V17.3843C72.1147 15.7302 71.6556 14.4413 70.7373 13.5176C69.819 12.5724 68.6055 12.0998 67.0969 12.0998C65.632 12.0998 64.4294 12.5724 63.4893 13.5176C62.571 14.4413 62.1118 15.7302 62.1118 17.3843V17.6743C62.1118 19.3284 62.571 20.628 63.4893 21.5732C64.4294 22.4969 65.632 22.9587 67.0969 22.9587Z" fill="white"/>
<path d="M86.3232 25.9232C84.268 25.9232 82.5626 25.4721 81.207 24.5698C79.8514 23.6676 79.0206 22.3035 78.7145 20.4776L81.8629 19.7365C82.0378 20.6172 82.333 21.3154 82.7484 21.8309C83.1638 22.3465 83.6776 22.7117 84.2898 22.9265C84.9239 23.1413 85.6017 23.2487 86.3232 23.2487C87.3946 23.2487 88.2145 23.0447 88.7829 22.6365C89.3733 22.2284 89.6684 21.7021 89.6684 21.0576C89.6684 20.4132 89.3951 19.9406 88.8485 19.6398C88.3019 19.3391 87.493 19.0921 86.4216 18.8987L85.3065 18.7054C84.2133 18.5121 83.2185 18.2328 82.3221 17.8676C81.4256 17.5024 80.715 16.9976 80.1903 16.3532C79.6656 15.7087 79.4032 14.8817 79.4032 13.8721C79.4032 12.3684 79.9717 11.2084 81.1086 10.3921C82.2455 9.55428 83.7542 9.13539 85.6345 9.13539C87.4492 9.13539 88.936 9.54354 90.0948 10.3598C91.2755 11.1547 92.0407 12.2395 92.3905 13.6143L89.2421 14.4843C89.0453 13.5176 88.6299 12.841 87.9958 12.4543C87.3618 12.0461 86.5747 11.8421 85.6345 11.8421C84.7162 11.8421 83.9947 12.0139 83.4699 12.3576C82.9452 12.6798 82.6828 13.1417 82.6828 13.7432C82.6828 14.3876 82.9343 14.8602 83.4371 15.1609C83.9619 15.4617 84.6615 15.6872 85.5361 15.8376L86.684 16.0309C87.8428 16.2243 88.9032 16.4928 89.8652 16.8365C90.8272 17.1802 91.5816 17.6743 92.1282 18.3187C92.6966 18.9632 92.9809 19.8224 92.9809 20.8965C92.9809 22.4861 92.3796 23.7213 91.1771 24.6021C89.9745 25.4828 88.3566 25.9232 86.3232 25.9232Z" fill="white"/>
<path d="M96.9292 25.4721V9.5865H100.307V25.4721H96.9292ZM98.6347 7.42762C97.9787 7.42762 97.4212 7.22354 96.962 6.81539C96.5248 6.38576 96.3061 5.83799 96.3061 5.17206C96.3061 4.50613 96.5248 3.9691 96.962 3.56095C97.4212 3.13132 97.9787 2.9165 98.6347 2.9165C99.3124 2.9165 99.87 3.13132 100.307 3.56095C100.745 3.9691 100.963 4.50613 100.963 5.17206C100.963 5.83799 100.745 6.38576 100.307 6.81539C99.87 7.22354 99.3124 7.42762 98.6347 7.42762Z" fill="white"/>
<path d="M111.388 25.4721C110.404 25.4721 109.617 25.1821 109.026 24.6021C108.458 24.0221 108.174 23.2487 108.174 22.2821V12.3898H103.713V9.5865H108.174V4.33428H111.552V9.5865H116.373V12.3898H111.552V21.7021C111.552 22.3465 111.858 22.6687 112.47 22.6687H115.848V25.4721H111.388Z" fill="white"/>
<path d="M120.341 25.4721V9.5865H123.719V25.4721H120.341ZM122.047 7.42762C121.391 7.42762 120.833 7.22354 120.374 6.81539C119.937 6.38576 119.718 5.83799 119.718 5.17206C119.718 4.50613 119.937 3.9691 120.374 3.56095C120.833 3.13132 121.391 2.9165 122.047 2.9165C122.725 2.9165 123.282 3.13132 123.719 3.56095C124.157 3.9691 124.375 4.50613 124.375 5.17206C124.375 5.83799 124.157 6.38576 123.719 6.81539C123.282 7.22354 122.725 7.42762 122.047 7.42762Z" fill="white"/>
<path d="M132.471 25.4721L127.027 9.5865H130.602L134.898 23.0232H135.423L139.719 9.5865H143.294L137.85 25.4721H132.471Z" fill="white"/>
<path d="M152.771 25.7621C151.546 25.7621 150.453 25.4935 149.491 24.9565C148.529 24.4195 147.775 23.6569 147.228 22.6687C146.681 21.6806 146.408 20.4991 146.408 19.1243V9.5865H149.786V18.8987C149.786 20.2735 150.136 21.2939 150.836 21.9598C151.535 22.6043 152.508 22.9265 153.755 22.9265C155.132 22.9265 156.236 22.4754 157.067 21.5732C157.92 20.6495 158.346 19.3284 158.346 17.6098V9.5865H161.724V25.4721H158.412V23.0876H157.887C157.581 23.7321 157.034 24.3443 156.247 24.9243C155.46 25.4828 154.301 25.7621 152.771 25.7621Z" fill="white"/>
<path d="M173.342 25.9232C171.287 25.9232 169.582 25.4721 168.226 24.5698C166.871 23.6676 166.04 22.3035 165.734 20.4776L168.882 19.7365C169.057 20.6172 169.352 21.3154 169.768 21.8309C170.183 22.3465 170.697 22.7117 171.309 22.9265C171.943 23.1413 172.621 23.2487 173.342 23.2487C174.414 23.2487 175.234 23.0447 175.802 22.6365C176.392 22.2284 176.688 21.7021 176.688 21.0576C176.688 20.4132 176.414 19.9406 175.868 19.6398C175.321 19.3391 174.512 19.0921 173.441 18.8987L172.326 18.7054C171.232 18.5121 170.238 18.2328 169.341 17.8676C168.445 17.5024 167.734 16.9976 167.209 16.3532C166.685 15.7087 166.422 14.8817 166.422 13.8721C166.422 12.3684 166.991 11.2084 168.128 10.3921C169.265 9.55428 170.773 9.13539 172.654 9.13539C174.468 9.13539 175.955 9.54354 177.114 10.3598C178.295 11.1547 179.06 12.2395 179.41 13.6143L176.261 14.4843C176.064 13.5176 175.649 12.841 175.015 12.4543C174.381 12.0461 173.594 11.8421 172.654 11.8421C171.735 11.8421 171.014 12.0139 170.489 12.3576C169.964 12.6798 169.702 13.1417 169.702 13.7432C169.702 14.3876 169.953 14.8602 170.456 15.1609C170.981 15.4617 171.681 15.6872 172.555 15.8376L173.703 16.0309C174.862 16.2243 175.922 16.4928 176.884 16.8365C177.846 17.1802 178.601 17.6743 179.147 18.3187C179.716 18.9632 180 19.8224 180 20.8965C180 22.4861 179.399 23.7213 178.196 24.6021C176.994 25.4828 175.376 25.9232 173.342 25.9232Z" fill="white"/>
<defs>
<clipPath id="clip0_12_2528">
<rect width="29.5167" height="29" fill="white" transform="translate(0 0.5)"/>
</clipPath>
</defs>
</svg>
